<svg xmlns="http://www.w3.org/2000/svg" viewBox="0 0 64 64" width="64" height="64">
  <defs>
    <linearGradient id="gold" x1="0" y1="0" x2="0" y2="1">
      <stop offset="0" stop-color="#ffe08a"/>
      <stop offset="0.5" stop-color="#ffc53d"/>
      <stop offset="1" stop-color="#e3a212"/>
    </linearGradient>
  </defs>

  <!-- themed dark rounded background -->
  <rect width="64" height="64" rx="14" fill="#171411"/>
  <rect x="1.5" y="1.5" width="61" height="61" rx="12.5" fill="none" stroke="#ffc53d" stroke-opacity="0.35" stroke-width="1.5"/>

  <!-- handles -->
  <path d="M19 18 C9 18 9 31 20 32" fill="none" stroke="url(#gold)" stroke-width="4" stroke-linecap="round"/>
  <path d="M45 18 C55 18 55 31 44 32" fill="none" stroke="url(#gold)" stroke-width="4" stroke-linecap="round"/>

  <!-- cup bowl -->
  <path d="M18 14 H46 V21 C46 31 40 38 32 38 C24 38 18 31 18 21 Z" fill="url(#gold)"/>

  <!-- stem -->
  <rect x="29" y="37" width="6" height="6" fill="url(#gold)"/>

  <!-- base -->
  <rect x="25" y="43" width="14" height="3.5" rx="1" fill="url(#gold)"/>
  <path d="M21 47 H43 Q44 47 44 48 V50.5 Q44 52 42.5 52 H21.5 Q20 52 20 50.5 V48 Q20 47 21 47 Z" fill="url(#gold)"/>

  <!-- star accent on the cup -->
  <path d="M32 20 l1.4 2.9 3.2 0.4 -2.3 2.2 0.6 3.1 -2.9 -1.5 -2.9 1.5 0.6 -3.1 -2.3 -2.2 3.2 -0.4 Z" fill="#171411" fill-opacity="0.55"/>
</svg>
